<svg xmlns="http://www.w3.org/2000/svg" xmlns:xlink="http://www.w3.org/1999/xlink" width="500" zoomAndPan="magnify" viewBox="0 0 375 374.999991" height="500" preserveAspectRatio="xMidYMid meet" version="1.0"><defs><clipPath id="2a73e12e95"><path d="M 195 10 L 368 10 L 368 184 L 195 184 Z M 195 10 " clip-rule="nonzero"/></clipPath><clipPath id="bc8d277ba5"><path d="M 245.613281 -20.617188 L 394.394531 128.164062 L 269.035156 253.523438 L 120.253906 104.742188 Z M 245.613281 -20.617188 " clip-rule="nonzero"/></clipPath><clipPath id="bcc85ec279"><path d="M 235.632812 12.675781 C 205.351562 20.078125 195.066406 46.480469 195.460938 66.339844 L 197.863281 182.351562 L 312.421875 183.710938 C 332.3125 182.65625 347.03125 175.160156 357.394531 160.785156 C 371.734375 140.90625 370.910156 113.53125 355.386719 94.21875 C 345.855469 82.386719 332.511719 75.089844 317.765625 73.730469 C 313.796875 73.363281 309.847656 73.4375 305.972656 73.9375 C 306.457031 69.445312 306.390625 64.816406 305.75 60.136719 C 303.527344 43.839844 294.535156 29.253906 281.035156 20.105469 C 268.238281 11.453125 251.695312 8.742188 235.632812 12.675781 Z M 235.632812 12.675781 " clip-rule="nonzero"/></clipPath><clipPath id="f15510e3a1"><path d="M 17 191 L 190 191 L 190 364 L 17 364 Z M 17 191 " clip-rule="nonzero"/></clipPath><clipPath id="c15c6bb82b"><path d="M 139.265625 395.503906 L -9.515625 246.722656 L 115.847656 121.363281 L 264.625 270.140625 Z M 139.265625 395.503906 " clip-rule="nonzero"/></clipPath><clipPath id="82401eea47"><path d="M 149.25 362.210938 C 179.527344 354.804688 189.8125 328.40625 189.421875 308.546875 L 187.015625 192.535156 L 72.457031 191.175781 C 52.566406 192.230469 37.847656 199.726562 27.484375 214.101562 C 13.144531 233.980469 13.96875 261.351562 29.492188 280.664062 C 39.023438 292.5 52.367188 299.792969 67.113281 301.15625 C 71.082031 301.523438 75.03125 301.445312 78.90625 300.949219 C 78.421875 305.441406 78.492188 310.070312 79.128906 314.746094 C 81.351562 331.046875 90.34375 345.628906 103.84375 354.78125 C 116.640625 363.433594 133.183594 366.144531 149.25 362.210938 Z M 149.25 362.210938 " clip-rule="nonzero"/></clipPath><clipPath id="a093206cd9"><path d="M 195 190 L 369 190 L 369 363 L 195 363 Z M 195 190 " clip-rule="nonzero"/></clipPath><clipPath id="75f52e5bab"><path d="M 399.546875 240.820312 L 250.765625 389.601562 L 125.40625 264.238281 L 274.1875 115.460938 Z M 399.546875 240.820312 " clip-rule="nonzero"/></clipPath><clipPath id="797b34117a"><path d="M 366.253906 230.835938 C 358.851562 200.554688 332.453125 190.273438 312.589844 190.664062 L 196.578125 193.070312 L 195.222656 307.628906 C 196.273438 327.519531 203.773438 342.238281 218.144531 352.601562 C 238.023438 366.941406 265.398438 366.113281 284.710938 350.59375 C 296.542969 341.0625 303.839844 327.71875 305.199219 312.972656 C 305.566406 309.003906 305.492188 305.054688 304.992188 301.175781 C 309.488281 301.664062 314.113281 301.59375 318.792969 300.957031 C 335.089844 298.734375 349.675781 289.738281 358.824219 276.242188 C 367.480469 263.445312 370.1875 246.898438 366.253906 230.835938 Z M 366.253906 230.835938 " clip-rule="nonzero"/></clipPath><clipPath id="697541ebf0"><path d="M 15 12 L 189 12 L 189 185 L 15 185 Z M 15 12 " clip-rule="nonzero"/></clipPath><clipPath id="cb5862b2af"><path d="M -16.167969 134.066406 L 132.613281 -14.714844 L 257.972656 110.648438 L 109.191406 259.425781 Z M -16.167969 134.066406 " clip-rule="nonzero"/></clipPath><clipPath id="a7558394cc"><path d="M 17.125 144.046875 C 24.527344 174.328125 50.929688 184.613281 70.789062 184.222656 L 186.800781 181.816406 L 188.160156 67.257812 C 187.105469 47.367188 179.609375 32.648438 165.234375 22.285156 C 145.355469 7.945312 117.980469 8.769531 98.667969 24.292969 C 86.835938 33.824219 79.539062 47.167969 78.179688 61.914062 C 77.8125 65.882812 77.886719 69.832031 78.386719 73.707031 C 73.894531 73.222656 69.265625 73.292969 64.589844 73.929688 C 48.289062 76.152344 33.703125 85.144531 24.554688 98.644531 C 15.902344 111.441406 13.191406 127.984375 17.125 144.046875 Z M 17.125 144.046875 " clip-rule="nonzero"/></clipPath></defs><g clip-path="url(#2a73e12e95)"><g clip-path="url(#bc8d277ba5)"><g clip-path="url(#bcc85ec279)"><path fill="#59629f" d="M 249.746094 -12.625 L 390.8125 128.4375 L 267.378906 251.871094 L 126.316406 110.804688 Z M 249.746094 -12.625 " fill-opacity="1" fill-rule="nonzero"/></g></g></g><g clip-path="url(#f15510e3a1)"><g clip-path="url(#c15c6bb82b)"><g clip-path="url(#82401eea47)"><path fill="#59629f" d="M 135.132812 387.511719 L -5.933594 246.449219 L 117.5 123.015625 L 258.5625 264.082031 Z M 135.132812 387.511719 " fill-opacity="1" fill-rule="nonzero"/></g></g></g><g clip-path="url(#a093206cd9)"><g clip-path="url(#75f52e5bab)"><g clip-path="url(#797b34117a)"><path fill="#2e317a" d="M 391.558594 244.953125 L 250.492188 386.019531 L 127.058594 262.585938 L 268.125 121.519531 Z M 391.558594 244.953125 " fill-opacity="1" fill-rule="nonzero"/></g></g></g><g clip-path="url(#697541ebf0)"><g clip-path="url(#cb5862b2af)"><g clip-path="url(#a7558394cc)"><path fill="#2e317a" d="M -8.175781 129.933594 L 132.886719 -11.132812 L 256.320312 112.300781 L 115.253906 253.363281 Z M -8.175781 129.933594 " fill-opacity="1" fill-rule="nonzero"/></g></g></g></svg>